<?xml version="1.0" encoding="UTF-8" standalone="no"?>
<!-- Created with Inkscape (http://www.inkscape.org/) -->

<svg
   xmlns:dc="http://purl.org/dc/elements/1.1/"
   xmlns:cc="http://creativecommons.org/ns#"
   xmlns:rdf="http://www.w3.org/1999/02/22-rdf-syntax-ns#"
   xmlns:svg="http://www.w3.org/2000/svg"
   xmlns="http://www.w3.org/2000/svg"
   xmlns:sodipodi="http://sodipodi.sourceforge.net/DTD/sodipodi-0.dtd"
   xmlns:inkscape="http://www.inkscape.org/namespaces/inkscape"
   id="svg2"
   version="1.1"
   inkscape:version="0.91 r13725"
   xml:space="preserve"
   width="435.7775"
   height="434.58151"
   viewBox="0 0 435.7775 434.58151"
   sodipodi:docname="li-icon2.svg"
   inkscape:export-filename="Z:\Internal Projects\Lightning Import\Lightning Import_Logo (1)\Lightning Import_Logo\Lightning Import Logo_Color\icon-256x256.png"
   inkscape:export-xdpi="26.508261"
   inkscape:export-ydpi="26.508261"><metadata
     id="metadata8"><rdf:RDF><cc:Work
         rdf:about=""><dc:format>image/svg+xml</dc:format><dc:type
           rdf:resource="http://purl.org/dc/dcmitype/StillImage" /><dc:title></dc:title></cc:Work></rdf:RDF></metadata><defs
     id="defs6"><clipPath
       clipPathUnits="userSpaceOnUse"
       id="clipPath22"><path
         d="M 0,720 720,720 720,0 0,0 0,720 Z"
         id="path24"
         inkscape:connector-curvature="0" /></clipPath></defs><sodipodi:namedview
     pagecolor="#ffffff"
     bordercolor="#666666"
     borderopacity="1"
     objecttolerance="10"
     gridtolerance="10"
     guidetolerance="10"
     inkscape:pageopacity="0"
     inkscape:pageshadow="2"
     inkscape:window-width="1920"
     inkscape:window-height="1017"
     id="namedview4"
     showgrid="true"
     inkscape:zoom="0.74167645"
     inkscape:cx="-153.15059"
     inkscape:cy="-40.868989"
     inkscape:window-x="-8"
     inkscape:window-y="-8"
     inkscape:window-maximized="1"
     inkscape:current-layer="g10"
     fit-margin-top="0"
     fit-margin-left="0"
     fit-margin-right="0"
     fit-margin-bottom="-70" /><g
     id="g10"
     inkscape:groupmode="layer"
     inkscape:label="Lightning Import Logo_Color"
     transform="matrix(1.25,0,0,-1.25,-232.11125,702.29025)"><path
       d="m 219.375,158.519 -3.375,0 0,25.594 3.375,0 0,-25.594 z"
       style="fill:#96989b;fill-opacity:1;fill-rule:nonzero;stroke:none"
       id="path16"
       inkscape:connector-curvature="0" /><g
       id="g18"><g
         id="g20"
         clip-path="url(#clipPath22)"><g
           id="g26"
           transform="translate(244.4414,161.876)"><path
             d="m 0,0 c -0.867,-1.242 -2.077,-2.171 -3.63,-2.786 -1.553,-0.615 -3.36,-0.923 -5.423,-0.923 -2.086,0 -3.937,0.489 -5.554,1.468 -1.618,0.978 -2.869,2.37 -3.753,4.175 -0.885,1.804 -1.339,3.896 -1.363,6.275 l 0,2.232 c 0,3.856 0.9,6.844 2.699,8.965 1.798,2.121 4.327,3.182 7.585,3.182 2.671,0 4.822,-0.683 6.451,-2.048 1.629,-1.365 2.625,-3.302 2.988,-5.81 l -3.375,0 c -0.633,3.399 -2.648,5.098 -6.047,5.098 -2.262,0 -3.975,-0.795 -5.141,-2.384 -1.166,-1.59 -1.755,-3.891 -1.767,-6.905 l 0,-2.094 c 0,-2.873 0.656,-5.157 1.969,-6.852 1.312,-1.695 3.088,-2.542 5.326,-2.542 1.265,0 2.373,0.139 3.322,0.421 0.949,0.28 1.734,0.754 2.356,1.421 l 0,5.734 -5.924,0 0,2.76 L 0,9.387 0,0 Z"
             style="fill:#96989b;fill-opacity:1;fill-rule:nonzero;stroke:none"
             id="path28"
             inkscape:connector-curvature="0" /></g><g
           id="g30"
           transform="translate(269.7363,158.5186)"><path
             d="m 0,0 -3.393,0 0,11.83 -12.902,0 0,-11.83 -3.375,0 0,25.594 3.375,0 0,-11.004 12.902,0 0,11.004 3.393,0 L 0,0 Z"
             style="fill:#96989b;fill-opacity:1;fill-rule:nonzero;stroke:none"
             id="path32"
             inkscape:connector-curvature="0" /></g><g
           id="g34"
           transform="translate(292.9043,181.3525)"><path
             d="m 0,0 -8.227,0 0,-22.834 -3.357,0 0,22.834 -8.209,0 0,2.76 L 0,2.76 0,0 Z"
             style="fill:#96989b;fill-opacity:1;fill-rule:nonzero;stroke:none"
             id="path36"
             inkscape:connector-curvature="0" /></g><g
           id="g38"
           transform="translate(316.3711,158.5186)"><path
             d="m 0,0 -3.393,0 -12.884,19.723 0,-19.723 -3.393,0 0,25.594 3.393,0 12.92,-19.811 0,19.811 3.357,0 L 0,0 Z"
             style="fill:#96989b;fill-opacity:1;fill-rule:nonzero;stroke:none"
             id="path40"
             inkscape:connector-curvature="0" /></g><path
           d="m 325.986,158.519 -3.375,0 0,25.594 3.375,0 0,-25.594 z"
           style="fill:#96989b;fill-opacity:1;fill-rule:nonzero;stroke:none"
           id="path42"
           inkscape:connector-curvature="0" /><g
           id="g44"
           transform="translate(351.8262,158.5186)"><path
             d="m 0,0 -3.393,0 -12.884,19.723 0,-19.723 -3.393,0 0,25.594 3.393,0 12.92,-19.811 0,19.811 3.357,0 L 0,0 Z"
             style="fill:#96989b;fill-opacity:1;fill-rule:nonzero;stroke:none"
             id="path46"
             inkscape:connector-curvature="0" /></g><g
           id="g48"
           transform="translate(376.7168,161.876)"><path
             d="m 0,0 c -0.867,-1.242 -2.077,-2.171 -3.63,-2.786 -1.553,-0.615 -3.36,-0.923 -5.423,-0.923 -2.086,0 -3.937,0.489 -5.554,1.468 -1.618,0.978 -2.869,2.37 -3.753,4.175 -0.885,1.804 -1.339,3.896 -1.363,6.275 l 0,2.232 c 0,3.856 0.9,6.844 2.699,8.965 1.798,2.121 4.327,3.182 7.585,3.182 2.671,0 4.822,-0.683 6.451,-2.048 1.629,-1.365 2.625,-3.302 2.988,-5.81 l -3.375,0 c -0.633,3.399 -2.648,5.098 -6.047,5.098 -2.262,0 -3.975,-0.795 -5.141,-2.384 -1.166,-1.59 -1.755,-3.891 -1.767,-6.905 l 0,-2.094 c 0,-2.873 0.656,-5.157 1.969,-6.852 1.312,-1.695 3.088,-2.542 5.326,-2.542 1.265,0 2.373,0.139 3.322,0.421 0.949,0.28 1.734,0.754 2.356,1.421 l 0,5.734 -5.924,0 0,2.76 L 0,9.387 0,0 Z"
             style="fill:#96989b;fill-opacity:1;fill-rule:nonzero;stroke:none"
             id="path50"
             inkscape:connector-curvature="0" /></g><path
           d="m 396.791,158.519 -6.152,0 0,25.594 6.152,0 0,-25.594 z"
           style="fill:#96989b;fill-opacity:1;fill-rule:nonzero;stroke:none"
           id="path52"
           inkscape:connector-curvature="0" /><g
           id="g54"
           transform="translate(409.1836,184.1123)"><path
             d="M 0,0 5.713,-17.807 11.408,0 l 8.121,0 0,-25.594 -6.187,0 0,5.977 0.597,12.234 -6.187,-18.211 -4.078,0 -6.205,18.229 0.597,-12.252 0,-5.977 -6.17,0 L -8.104,0 0,0 Z"
             style="fill:#96989b;fill-opacity:1;fill-rule:nonzero;stroke:none"
             id="path56"
             inkscape:connector-curvature="0" /></g><g
           id="g58"
           transform="translate(438.8027,171.9658)"><path
             d="M 0,0 4.043,0 C 5.238,0 6.149,0.299 6.776,0.896 7.403,1.494 7.717,2.338 7.717,3.428 7.717,4.623 7.395,5.578 6.75,6.293 6.105,7.008 5.227,7.371 4.113,7.383 L 0,7.383 0,0 Z m 0,-4.764 0,-8.683 -6.17,0 0,25.593 10.213,0 c 1.957,0 3.688,-0.36 5.194,-1.081 1.506,-0.72 2.672,-1.746 3.498,-3.076 0.827,-1.33 1.24,-2.839 1.24,-4.526 0,-2.496 -0.894,-4.491 -2.681,-5.985 C 9.507,-4.017 7.055,-4.764 3.938,-4.764 l -3.938,0 z"
             style="fill:#96989b;fill-opacity:1;fill-rule:nonzero;stroke:none"
             id="path60"
             inkscape:connector-curvature="0" /></g><g
           id="g62"
           transform="translate(471.4629,171.8604)"><path
             d="M 0,0 C 0,2.543 -0.425,4.474 -1.274,5.792 -2.124,7.11 -3.34,7.77 -4.922,7.77 -8.016,7.77 -9.65,5.449 -9.826,0.809 l -0.018,-1.881 c 0,-2.508 0.416,-4.436 1.248,-5.783 0.832,-1.348 2.069,-2.022 3.709,-2.022 1.559,0 2.76,0.662 3.604,1.986 0.844,1.325 1.271,3.229 1.283,5.713 L 0,0 Z m 6.275,-1.072 c 0,-2.496 -0.463,-4.705 -1.388,-6.627 -0.926,-1.922 -2.241,-3.402 -3.947,-4.439 -1.705,-1.037 -3.647,-1.555 -5.827,-1.555 -2.179,0 -4.113,0.501 -5.801,1.503 -1.687,1.002 -3.002,2.434 -3.946,4.297 -0.943,1.864 -1.438,4.002 -1.485,6.416 l 0,1.442 c 0,2.508 0.46,4.72 1.38,6.636 0.92,1.916 2.238,3.395 3.955,4.438 1.717,1.043 3.671,1.565 5.862,1.565 2.168,0 4.102,-0.516 5.801,-1.547 C 2.578,10.025 3.899,8.558 4.843,6.653 5.786,4.749 6.264,2.566 6.275,0.105 l 0,-1.177 z"
             style="fill:#96989b;fill-opacity:1;fill-rule:nonzero;stroke:none"
             id="path64"
             inkscape:connector-curvature="0" /></g><g
           id="g66"
           transform="translate(487.0898,172.3174)"><path
             d="M 0,0 3.902,0 C 5.074,0 5.956,0.309 6.548,0.925 7.14,1.542 7.436,2.402 7.436,3.507 7.436,4.611 7.137,5.478 6.539,6.105 5.941,6.734 5.062,7.049 3.902,7.049 L 0,7.049 0,0 Z m 3.34,-4.746 -3.34,0 0,-9.053 -6.17,0 0,25.594 10.072,0 c 3.035,0 5.409,-0.673 7.119,-2.02 1.711,-1.345 2.567,-3.248 2.567,-5.707 0,-1.779 -0.36,-3.254 -1.081,-4.424 -0.721,-1.17 -1.849,-2.12 -3.384,-2.845 l 5.344,-10.334 0,-0.264 -6.61,0 -4.517,9.053 z"
             style="fill:#96989b;fill-opacity:1;fill-rule:nonzero;stroke:none"
             id="path68"
             inkscape:connector-curvature="0" /></g><g
           id="g70"
           transform="translate(523.6172,179.3486)"><path
             d="m 0,0 -7.682,0 0,-20.83 -6.17,0 0,20.83 -7.541,0 0,4.764 L 0,4.764 0,0 Z"
             style="fill:#96989b;fill-opacity:1;fill-rule:nonzero;stroke:none"
             id="path72"
             inkscape:connector-curvature="0" /></g><g
           id="g74"
           transform="translate(354.3745,510.8989)"><path
             d="m 0,0 6.783,0 -23.27,-104.958 c -0.398,-1.809 0.989,-3.517 2.841,-3.5 l 25.235,0.244 c 1.826,0.018 3.206,-1.645 2.854,-3.436 l -6.781,-34.458 c -0.277,-1.402 -1.539,-2.39 -2.967,-2.321 l -51.887,2.533 c -1.918,0.093 -3.209,2.001 -2.583,3.816 L 0,0 Z"
             style="fill:#f6e428;fill-opacity:1;fill-rule:nonzero;stroke:none"
             id="path76"
             inkscape:connector-curvature="0" /></g><g
           id="g78"
           transform="translate(354.9062,510.1489)"><path
             d="m 0,0 -49.599,-141.578 c -0.219,-0.637 -0.129,-1.325 0.251,-1.886 0.379,-0.56 0.984,-0.901 1.66,-0.933 L 4.2,-146.93 c 1.046,-0.038 1.99,0.688 2.194,1.717 l 6.781,34.458 c 0.125,0.631 -0.04,1.277 -0.451,1.772 -0.407,0.49 -1.002,0.769 -1.638,0.769 l -0.022,0 -25.235,-0.244 c -1.138,0.002 -2.152,0.479 -2.853,1.342 -0.701,0.864 -0.966,1.982 -0.727,3.069 L 5.316,0 0,0 Z m 4.301,-148.432 c -0.058,0 -0.116,10e-4 -0.175,0.004 l -51.887,2.532 c -1.152,0.057 -2.183,0.636 -2.83,1.592 -0.646,0.955 -0.801,2.128 -0.425,3.219 L -1.24,0.998 C -1.134,1.299 -0.851,1.5 -0.532,1.5 l 6.783,0 C 6.479,1.5 6.693,1.397 6.836,1.219 6.979,1.042 7.032,0.81 6.983,0.588 l -23.27,-104.959 c -0.14,-0.636 0.016,-1.292 0.427,-1.799 0.411,-0.507 1,-0.791 1.674,-0.788 l 25.237,0.244 0.035,0 c 1.083,0 2.099,-0.476 2.792,-1.31 0.7,-0.844 0.98,-1.945 0.769,-3.021 l -6.781,-34.458 c -0.335,-1.697 -1.85,-2.929 -3.565,-2.929"
             style="fill:#96989b;fill-opacity:1;fill-rule:nonzero;stroke:none"
             id="path80"
             inkscape:connector-curvature="0" /></g><g
           id="g82"
           transform="translate(351.3921,264.4385)"><path
             d="m 0,0 25.309,135.562 c 0.243,1.342 1.395,2.33 2.758,2.366 l 33.147,0.882 c 2.06,0.055 3.51,-2.008 2.76,-3.928 L 7.335,-0.294 0,0 Z"
             style="fill:#f6e428;fill-opacity:1;fill-rule:nonzero;stroke:none"
             id="path84"
             inkscape:connector-curvature="0" /></g><g
           id="g86"
           transform="translate(352.2886,265.1533)"><path
             d="m 0,0 5.948,-0.238 56.438,134.696 c 0.257,0.659 0.169,1.388 -0.248,1.982 -0.417,0.594 -1.044,0.917 -1.801,0.906 L 27.19,136.464 c -1.003,-0.027 -1.86,-0.763 -2.039,-1.75 L 0,0 Z m 6.438,-1.759 c -0.009,0 -0.02,0 -0.029,10e-4 l -7.335,0.294 c -0.218,0.009 -0.421,0.111 -0.557,0.281 -0.136,0.171 -0.191,0.392 -0.151,0.606 l 25.309,135.562 c 0.304,1.678 1.766,2.932 3.475,2.978 l 33.148,0.882 c 1.204,0.048 2.367,-0.545 3.068,-1.543 0.701,-0.998 0.854,-2.272 0.41,-3.407 L 7.13,-1.299 C 7.013,-1.578 6.74,-1.759 6.438,-1.759"
             style="fill:#96989b;fill-opacity:1;fill-rule:nonzero;stroke:none"
             id="path88"
             inkscape:connector-curvature="0" /></g><g
           id="g90"
           transform="translate(360,547.3462)"><path
             d="m 0,0 c -88.126,0 -159.824,-71.698 -159.824,-159.825 0,-88.126 71.698,-159.824 159.824,-159.824 88.127,0 159.824,71.698 159.824,159.824 C 159.824,-71.698 88.127,0 0,0 m 0,-334.135 c -96.114,0 -174.311,78.197 -174.311,174.31 0,96.114 78.197,174.311 174.311,174.311 96.114,0 174.311,-78.197 174.311,-174.311 0,-96.113 -78.197,-174.31 -174.311,-174.31"
             style="fill:#96989b;fill-opacity:1;fill-rule:nonzero;stroke:none"
             id="path92"
             inkscape:connector-curvature="0" /></g></g></g><text
       xml:space="preserve"
       style="font-style:normal;font-weight:normal;font-size:32px;line-height:125%;font-family:sans-serif;letter-spacing:0px;word-spacing:0px;fill:#000000;fill-opacity:1;stroke:none;stroke-width:1px;stroke-linecap:butt;stroke-linejoin:miter;stroke-opacity:1"
       x="482.3143"
       y="-221.71745"
       id="text4172"
       sodipodi:linespacing="125%"
       transform="scale(1,-1)"><tspan
         sodipodi:role="line"
         id="tspan4174"
         x="482.3143"
         y="-221.71745">TM</tspan></text>
</g></svg>